<?xml version="1.0" encoding="iso-8859-1"?>
<!-- Generator: Adobe Illustrator 16.0.0, SVG Export Plug-In . SVG Version: 6.00 Build 0)  -->
<!DOCTYPE svg PUBLIC "-//W3C//DTD SVG 1.1//EN" "http://www.w3.org/Graphics/SVG/1.1/DTD/svg11.dtd">
<svg xmlns="http://www.w3.org/2000/svg" xmlns:xlink="http://www.w3.org/1999/xlink" version="1.1" id="Capa_1" x="0px" y="0px" width="512px" height="512px" viewBox="0 0 29.941 29.941" style="enable-background:new 0 0 29.941 29.941;" xml:space="preserve">
<g>
	<g>
		<polygon points="14.104,10.494 11.907,11.837 13.392,11.828 14.776,11.611 15.699,11.621 16.741,11.826 18.46,11.837     16.486,10.494   " fill="#000000"/>
		<path d="M26.554,6.871c0.33-0.329,0.503-0.805,0.42-1.3c-0.062-0.362-0.256-0.665-0.516-0.884c0.054-0.154,0.09-0.316,0.09-0.487    c0-0.548-0.303-1.02-0.748-1.273c0.031-0.118,0.054-0.24,0.054-0.367c0-0.813-0.658-1.47-1.471-1.47    c-0.448,0-0.845,0.205-1.112,0.521C23,1.278,22.588,1.062,22.125,1.062c-0.664,0-1.22,0.44-1.408,1.043    C19.209,0.802,17.208,0,15.009,0c-2.256,0-4.306,0.842-5.824,2.204C8.963,1.666,8.432,1.289,7.816,1.289    c-0.465,0-0.873,0.217-1.145,0.55c-0.27-0.317-0.665-0.522-1.113-0.522c-0.814,0-1.471,0.657-1.471,1.47    c0,0.127,0.021,0.25,0.052,0.366C3.696,3.406,3.393,3.878,3.393,4.425c0,0.172,0.035,0.335,0.089,0.488    C3.22,5.132,3.029,5.436,2.967,5.798c-0.083,0.495,0.09,0.971,0.42,1.3C3.323,7.226,3.271,7.36,3.246,7.508    C3.125,8.224,3.539,8.905,4.197,9.146c-0.002,0.032-0.01,0.063-0.01,0.095c0,0.82,0.664,1.484,1.484,1.484    c0.491,0,0.924-0.242,1.193-0.609c0.996,3.36,4.265,5.835,8.144,5.835c3.917,0,7.21-2.525,8.168-5.938    c0.272,0.297,0.659,0.486,1.094,0.486c0.819,0,1.483-0.664,1.483-1.484c0-0.032-0.008-0.063-0.01-0.095    c0.658-0.242,1.073-0.922,0.951-1.639C26.671,7.133,26.619,6.999,26.554,6.871z M21.559,5.707V5.705l-0.964-0.018    c0.002,0.006,0.003,0.014,0.006,0.02h-4.685l0.038,0.411l-0.71-0.215L14.41,6.155l0.04-0.448c0,0-5.648-0.009-5.651,0H8.792    l0.095,1.032H7.89C8.118,5.597,8.649,4.554,9.411,3.69c0.543-0.23,1.347-0.458,2.496-0.544c0.269-0.022-1.071,1.202-0.768,1.188    c0.772-0.024,3.438-1.023,3.747-1.064c0.311-0.039-1.012,0.896-0.67,0.929c1.216,0.084,2.797-0.824,4.686-0.709    c0.819,0.05,1.488,0.298,1.997,0.562c0.673,0.879,1.125,1.912,1.282,3.031H21.45l0.128-1.378L21.559,5.707L21.559,5.707z     M20.985,6.247l-0.278,3.04h-3.918l-0.28-3.04H20.985z M13.858,6.247l-0.279,3.04H9.662l-0.279-3.04H13.858z M15.009,14.736    c-3.996,0-7.245-3.033-7.245-6.761c0-0.184,0.014-0.364,0.029-0.543h1.156L9.17,9.826h4.901l0.24-2.597l0.933-0.283l0.809,0.247    l0.245,2.634h4.899l0.188-2.047h0.857c0,0.066,0.01,0.131,0.01,0.196C22.253,11.704,19.003,14.736,15.009,14.736z" fill="#000000"/>
		<polygon points="14.495,27.25 10.911,16.564 4.43,17.967 5.083,29.941 24.47,29.941 25.08,17.967 18.46,16.564   " fill="#000000"/>
		<polygon points="12.254,16.727 13.362,19.208 15.802,19.208 16.87,16.727   " fill="#000000"/>
		<polygon points="14.66,24.831 16.156,19.716 13.046,19.716   " fill="#000000"/>
	</g>
</g>
<g>
</g>
<g>
</g>
<g>
</g>
<g>
</g>
<g>
</g>
<g>
</g>
<g>
</g>
<g>
</g>
<g>
</g>
<g>
</g>
<g>
</g>
<g>
</g>
<g>
</g>
<g>
</g>
<g>
</g>
</svg>
