<?xml version="1.0" encoding="iso-8859-1"?>
<!-- Generator: Adobe Illustrator 18.0.0, SVG Export Plug-In . SVG Version: 6.00 Build 0)  -->
<!DOCTYPE svg PUBLIC "-//W3C//DTD SVG 1.1//EN" "http://www.w3.org/Graphics/SVG/1.1/DTD/svg11.dtd">
<svg version="1.1" id="Capa_1" xmlns="http://www.w3.org/2000/svg" xmlns:xlink="http://www.w3.org/1999/xlink" x="0px" y="0px"
	 viewBox="0 0 393.012 393.012" style="enable-background:new 0 0 393.012 393.012;" xml:space="preserve">
<path d="M375.713,342.57V148.059h-15.08v-24.527L337.9,107.676l-22.732,15.856v24.527h-5.754v-35.471h-53.59V67.875l-59.318-41.369
	l-59.324,41.369v44.713H83.59v35.471h-5.748v-24.527l-22.732-15.856l-22.732,15.856v24.527H17.299V342.57H0v23.935h393.012V342.57
	H375.713z M51.422,148.059H39.75v-18.771h11.672V148.059z M58.795,129.287h11.672v18.771H58.795V129.287z M81.689,328.371H60.814
	v-45.09h20.875V328.371z M81.689,273.26H60.814v-45.09h20.875V273.26z M81.689,218.15H60.814v-45.09h20.875V218.15z
	 M131.791,328.371h-20.875v-45.09h20.875V328.371z M131.791,273.26h-20.875v-45.09h20.875V273.26z M131.791,218.15h-20.875v-45.09
	h20.875V218.15z M181.891,328.371h-20.873v-45.09h20.873V328.371z M181.891,273.26h-20.873v-45.09h20.873V273.26z M181.891,218.15
	h-20.873v-45.09h20.873V218.15z M175.213,95.545c0-11.76,9.531-21.293,21.291-21.293c11.762,0,21.295,9.533,21.295,21.293
	c0,11.762-9.533,21.291-21.295,21.291C184.744,116.836,175.213,107.307,175.213,95.545z M231.992,328.371h-20.875v-45.09h20.875
	V328.371z M231.992,273.26h-20.875v-45.09h20.875V273.26z M231.992,218.15h-20.875v-45.09h20.875V218.15z M282.092,328.371h-20.873
	v-45.09h20.873V328.371z M282.092,273.26h-20.873v-45.09h20.873V273.26z M282.092,218.15h-20.873v-45.09h20.873V218.15z
	 M332.191,328.371h-20.873v-45.09h20.873V328.371z M332.191,273.26h-20.873v-45.09h20.873V273.26z M332.191,218.15h-20.873v-45.09
	h20.873V218.15z M334.215,148.059h-11.674v-18.771h11.674V148.059z M353.258,148.059h-11.672v-18.771h11.672V148.059z"/>
<g>
</g>
<g>
</g>
<g>
</g>
<g>
</g>
<g>
</g>
<g>
</g>
<g>
</g>
<g>
</g>
<g>
</g>
<g>
</g>
<g>
</g>
<g>
</g>
<g>
</g>
<g>
</g>
<g>
</g>
</svg>
