<?xml version="1.0" encoding="iso-8859-1"?>
<!-- Generator: Adobe Illustrator 18.1.1, SVG Export Plug-In . SVG Version: 6.00 Build 0)  -->
<svg version="1.1" id="Capa_1" xmlns="http://www.w3.org/2000/svg" xmlns:xlink="http://www.w3.org/1999/xlink" x="0px" y="0px"
	 viewBox="0 0 379.667 379.667" style="enable-background:new 0 0 379.667 379.667;" xml:space="preserve">
<g>
	<g>
		<path d="M104.833,62.333c0,9.35,7.65,17,17,17h240.833c9.35,0,17-7.65,17-17s-7.65-17-17-17H121.833
			C112.483,45.333,104.833,52.983,104.833,62.333z"/>
		<path d="M121.833,206.833h240.833c9.35,0,17-7.65,17-17s-7.65-17-17-17H121.833c-9.35,0-17,7.65-17,17
			S112.483,206.833,121.833,206.833z"/>
		<path d="M121.833,334.333h240.833c9.35,0,17-7.65,17-17s-7.65-17-17-17H121.833c-9.35,0-17,7.65-17,17
			S112.483,334.333,121.833,334.333z"/>
		<path d="M17,79.333h28.333c9.35,0,17-7.65,17-17s-7.65-17-17-17H17c-9.35,0-17,7.65-17,17C0,71.683,7.65,79.333,17,79.333z"/>
		<path d="M17,206.833h28.333c9.35,0,17-7.65,17-17s-7.65-17-17-17H17c-9.35,0-17,7.65-17,17S7.65,206.833,17,206.833z"/>
		<path d="M17,334.333h28.333c9.35,0,17-7.65,17-17s-7.65-17-17-17H17c-9.35,0-17,7.65-17,17S7.65,334.333,17,334.333z"/>
	</g>
</g>
<g>
</g>
<g>
</g>
<g>
</g>
<g>
</g>
<g>
</g>
<g>
</g>
<g>
</g>
<g>
</g>
<g>
</g>
<g>
</g>
<g>
</g>
<g>
</g>
<g>
</g>
<g>
</g>
<g>
</g>
</svg>
